<mxfile host="app.diagrams.net" agent="Mozilla/5.0 (Windows NT 10.0; Win64; x64) AppleWebKit/537.36 (KHTML, like Gecko) Chrome/135.0.0.0 Safari/537.36" version="26.2.9">
  <diagram name="Page-1" id="c4acf3e9-155e-7222-9cf6-157b1a14988f">
    <mxGraphModel dx="3938" dy="4100" grid="1" gridSize="10" guides="1" tooltips="1" connect="1" arrows="1" fold="1" page="1" pageScale="1" pageWidth="850" pageHeight="1100" background="none" math="0" shadow="0">
      <root>
        <mxCell id="0" />
        <mxCell id="1" parent="0" />
        <mxCell id="_Dmv3MYw5evd5DSL76aV-1" value="&lt;p style=&quot;margin:0px;margin-top:4px;text-align:center;&quot;&gt;&lt;b&gt;RealArsenalLM:ZakładBukmacherski&lt;/b&gt;&lt;/p&gt;&lt;hr size=&quot;1&quot; style=&quot;border-style:solid;&quot;&gt;&lt;p style=&quot;margin:0px;margin-left:4px;&quot;&gt;nazwa = Liga Mistrzow Real Madryt vs Arsenal&lt;/p&gt;&lt;p style=&quot;margin:0px;margin-left:4px;&quot;&gt;rodzaj = piłka nożna&lt;/p&gt;&lt;p style=&quot;margin:0px;margin-left:4px;&quot;&gt;dataKoncaObstawiania = 08.04.2025, 20:00&lt;/p&gt;&lt;p style=&quot;margin:0px;margin-left:4px;&quot;&gt;idZakladu= 022&lt;/p&gt;&lt;p style=&quot;margin:0px;margin-left:4px;&quot;&gt;postawionePieniadze = &amp;lt;TadeuszKowalski, 100.0&amp;gt;&lt;/p&gt;" style="verticalAlign=top;align=left;overflow=fill;html=1;whiteSpace=wrap;" vertex="1" parent="1">
          <mxGeometry x="270" y="-890" width="290" height="110" as="geometry" />
        </mxCell>
        <mxCell id="_Dmv3MYw5evd5DSL76aV-3" value="&lt;p style=&quot;margin:0px;margin-top:4px;text-align:center;&quot;&gt;&lt;b&gt;TadeuszKowalski:Klient&lt;/b&gt;&lt;/p&gt;&lt;hr size=&quot;1&quot; style=&quot;border-style:solid;&quot;&gt;&lt;p style=&quot;margin:0px;margin-left:4px;&quot;&gt;dataUr = 04.12.1999&lt;/p&gt;&lt;p style=&quot;margin:0px;margin-left:4px;&quot;&gt;pesel = 99182005241&lt;/p&gt;&lt;p style=&quot;margin:0px;margin-left:4px;&quot;&gt;imie = Tadeusz&lt;/p&gt;&lt;p style=&quot;margin:0px;margin-left:4px;&quot;&gt;nazwisko = Kowalski&lt;/p&gt;" style="verticalAlign=top;align=left;overflow=fill;html=1;whiteSpace=wrap;" vertex="1" parent="1">
          <mxGeometry x="-335" y="-740" width="160" height="100" as="geometry" />
        </mxCell>
        <mxCell id="_Dmv3MYw5evd5DSL76aV-14" value="&lt;p style=&quot;margin:0px;margin-top:4px;text-align:center;&quot;&gt;&lt;b&gt;TKKarta:KartaKredytowa&lt;/b&gt;&lt;/p&gt;&lt;hr size=&quot;1&quot; style=&quot;border-style:solid;&quot;&gt;&lt;p style=&quot;margin:0px;margin-left:4px;&quot;&gt;typKarty = Visa&lt;/p&gt;&lt;p style=&quot;margin:0px;margin-left:4px;&quot;&gt;nrKarty = 4520-1070-5096-1884&lt;/p&gt;&lt;p style=&quot;margin:0px;margin-left:4px;&quot;&gt;dataWaznosci = 05.26&lt;/p&gt;&lt;p style=&quot;margin:0px;margin-left:4px;&quot;&gt;limit = 5000&lt;/p&gt;&lt;p style=&quot;margin:0px;margin-left:4px;&quot;&gt;&lt;br&gt;&lt;/p&gt;" style="verticalAlign=top;align=left;overflow=fill;html=1;whiteSpace=wrap;" vertex="1" parent="1">
          <mxGeometry x="-590" y="-740" width="190" height="100" as="geometry" />
        </mxCell>
        <mxCell id="_Dmv3MYw5evd5DSL76aV-18" value="&lt;p style=&quot;margin:0px;margin-top:4px;text-align:center;&quot;&gt;&lt;b&gt;RealMadryt:Kurs&lt;/b&gt;&lt;/p&gt;&lt;hr size=&quot;1&quot; style=&quot;border-style:solid;&quot;&gt;&lt;p style=&quot;margin:0px;margin-left:4px;&quot;&gt;nazwaZwyciezcy: Real Madryt&lt;/p&gt;&lt;p style=&quot;margin:0px;margin-left:4px;&quot;&gt;akrualnyKurs: 1,12&lt;/p&gt;" style="verticalAlign=top;align=left;overflow=fill;html=1;whiteSpace=wrap;" vertex="1" parent="1">
          <mxGeometry x="615" y="-820" width="200" height="90" as="geometry" />
        </mxCell>
        <mxCell id="_Dmv3MYw5evd5DSL76aV-22" value="&lt;p style=&quot;margin:0px;margin-top:4px;text-align:center;&quot;&gt;&lt;b&gt;BlackJack:GraLosowa&lt;/b&gt;&lt;/p&gt;&lt;hr size=&quot;1&quot; style=&quot;border-style:solid;&quot;&gt;&lt;p style=&quot;margin:0px;margin-left:4px;&quot;&gt;nazwa = BlackJack&lt;/p&gt;&lt;p style=&quot;margin:0px;margin-left:4px;&quot;&gt;rodzaj = karciana&lt;/p&gt;&lt;p style=&quot;margin:0px;margin-left:4px;&quot;&gt;stawkaWejscia = 20,50&lt;/p&gt;&lt;p style=&quot;margin:0px;margin-left:4px;&quot;&gt;postawionePieniadze = &amp;lt;TadeuszKowalski, 50.0&amp;gt;&lt;/p&gt;&lt;p style=&quot;margin:0px;margin-left:4px;&quot;&gt;idGry = 011&lt;/p&gt;&lt;p style=&quot;margin:0px;margin-left:4px;&quot;&gt;idKrupiera = 02&lt;/p&gt;" style="verticalAlign=top;align=left;overflow=fill;html=1;whiteSpace=wrap;" vertex="1" parent="1">
          <mxGeometry x="-400" y="-905" width="290" height="120" as="geometry" />
        </mxCell>
        <mxCell id="_Dmv3MYw5evd5DSL76aV-33" value="" style="endArrow=none;html=1;rounded=0;exitX=1;exitY=0.5;exitDx=0;exitDy=0;entryX=0;entryY=0.5;entryDx=0;entryDy=0;" edge="1" parent="1" source="_Dmv3MYw5evd5DSL76aV-14" target="_Dmv3MYw5evd5DSL76aV-3">
          <mxGeometry width="50" height="50" relative="1" as="geometry">
            <mxPoint x="-300" y="-420" as="sourcePoint" />
            <mxPoint x="-250" y="-470" as="targetPoint" />
            <Array as="points" />
          </mxGeometry>
        </mxCell>
        <mxCell id="_Dmv3MYw5evd5DSL76aV-34" value="" style="endArrow=none;html=1;rounded=0;exitX=0.5;exitY=0;exitDx=0;exitDy=0;entryX=0.5;entryY=1;entryDx=0;entryDy=0;" edge="1" parent="1" source="_Dmv3MYw5evd5DSL76aV-3" target="_Dmv3MYw5evd5DSL76aV-22">
          <mxGeometry width="50" height="50" relative="1" as="geometry">
            <mxPoint x="-290" y="-600" as="sourcePoint" />
            <mxPoint x="-240" y="-650" as="targetPoint" />
          </mxGeometry>
        </mxCell>
        <mxCell id="_Dmv3MYw5evd5DSL76aV-35" value="" style="endArrow=none;html=1;rounded=0;entryX=0.5;entryY=0;entryDx=0;entryDy=0;exitX=0.5;exitY=1;exitDx=0;exitDy=0;" edge="1" parent="1" source="_Dmv3MYw5evd5DSL76aV-48" target="_Dmv3MYw5evd5DSL76aV-22">
          <mxGeometry width="50" height="50" relative="1" as="geometry">
            <mxPoint x="-250" y="-955" as="sourcePoint" />
            <mxPoint x="-260" y="-1000" as="targetPoint" />
            <Array as="points" />
          </mxGeometry>
        </mxCell>
        <mxCell id="_Dmv3MYw5evd5DSL76aV-36" value="&lt;p style=&quot;margin:0px;margin-top:4px;text-align:center;&quot;&gt;&lt;b&gt;TadeuszKowalski:Klient&lt;/b&gt;&lt;/p&gt;&lt;hr size=&quot;1&quot; style=&quot;border-style:solid;&quot;&gt;&lt;p style=&quot;margin:0px;margin-left:4px;&quot;&gt;dataUr = 04.12.1999&lt;/p&gt;&lt;p style=&quot;margin:0px;margin-left:4px;&quot;&gt;pesel = 99182005241&lt;/p&gt;&lt;p style=&quot;margin:0px;margin-left:4px;&quot;&gt;imie = Tadeusz&lt;/p&gt;&lt;p style=&quot;margin:0px;margin-left:4px;&quot;&gt;nazwisko = Kowalski&lt;/p&gt;" style="verticalAlign=top;align=left;overflow=fill;html=1;whiteSpace=wrap;" vertex="1" parent="1">
          <mxGeometry x="335" y="-710" width="160" height="100" as="geometry" />
        </mxCell>
        <mxCell id="_Dmv3MYw5evd5DSL76aV-37" value="&lt;p style=&quot;margin:0px;margin-top:4px;text-align:center;&quot;&gt;&lt;b&gt;TKKarta:KartaKredytowa&lt;/b&gt;&lt;/p&gt;&lt;hr size=&quot;1&quot; style=&quot;border-style:solid;&quot;&gt;&lt;p style=&quot;margin:0px;margin-left:4px;&quot;&gt;typKarty = Visa&lt;/p&gt;&lt;p style=&quot;margin:0px;margin-left:4px;&quot;&gt;nrKarty = 4520-1070-5096-1884&lt;/p&gt;&lt;p style=&quot;margin:0px;margin-left:4px;&quot;&gt;dataWaznosci = 05.26&lt;/p&gt;&lt;p style=&quot;margin:0px;margin-left:4px;&quot;&gt;limit = 5000&lt;/p&gt;&lt;p style=&quot;margin:0px;margin-left:4px;&quot;&gt;&lt;br&gt;&lt;/p&gt;" style="verticalAlign=top;align=left;overflow=fill;html=1;whiteSpace=wrap;" vertex="1" parent="1">
          <mxGeometry x="55" y="-710" width="190" height="100" as="geometry" />
        </mxCell>
        <mxCell id="_Dmv3MYw5evd5DSL76aV-38" value="" style="endArrow=none;html=1;rounded=0;exitX=1;exitY=0.5;exitDx=0;exitDy=0;entryX=0;entryY=0.5;entryDx=0;entryDy=0;" edge="1" parent="1" source="_Dmv3MYw5evd5DSL76aV-37" target="_Dmv3MYw5evd5DSL76aV-36">
          <mxGeometry width="50" height="50" relative="1" as="geometry">
            <mxPoint x="370" y="-430" as="sourcePoint" />
            <mxPoint x="420" y="-480" as="targetPoint" />
            <Array as="points" />
          </mxGeometry>
        </mxCell>
        <mxCell id="_Dmv3MYw5evd5DSL76aV-39" value="&lt;p style=&quot;margin:0px;margin-top:4px;text-align:center;&quot;&gt;&lt;b&gt;Arsenal:Kurs&lt;/b&gt;&lt;/p&gt;&lt;hr size=&quot;1&quot; style=&quot;border-style:solid;&quot;&gt;&lt;p style=&quot;margin:0px;margin-left:4px;&quot;&gt;nazwaZwyciezcy: Arsenal&lt;/p&gt;&lt;p style=&quot;margin:0px;margin-left:4px;&quot;&gt;akrualnyKurs: 2,36&lt;/p&gt;" style="verticalAlign=top;align=left;overflow=fill;html=1;whiteSpace=wrap;" vertex="1" parent="1">
          <mxGeometry x="615" y="-940" width="200" height="90" as="geometry" />
        </mxCell>
        <mxCell id="_Dmv3MYw5evd5DSL76aV-40" value="" style="endArrow=none;html=1;rounded=0;exitX=0.5;exitY=0;exitDx=0;exitDy=0;entryX=0.5;entryY=1;entryDx=0;entryDy=0;" edge="1" parent="1" source="_Dmv3MYw5evd5DSL76aV-36" target="_Dmv3MYw5evd5DSL76aV-1">
          <mxGeometry width="50" height="50" relative="1" as="geometry">
            <mxPoint x="415" y="-740" as="sourcePoint" />
            <mxPoint x="570" y="-690" as="targetPoint" />
          </mxGeometry>
        </mxCell>
        <mxCell id="_Dmv3MYw5evd5DSL76aV-41" value="" style="endArrow=none;html=1;rounded=0;exitX=1;exitY=0.75;exitDx=0;exitDy=0;entryX=0;entryY=0.5;entryDx=0;entryDy=0;" edge="1" parent="1" source="_Dmv3MYw5evd5DSL76aV-1" target="_Dmv3MYw5evd5DSL76aV-18">
          <mxGeometry width="50" height="50" relative="1" as="geometry">
            <mxPoint x="580" y="-650" as="sourcePoint" />
            <mxPoint x="630" y="-700" as="targetPoint" />
          </mxGeometry>
        </mxCell>
        <mxCell id="_Dmv3MYw5evd5DSL76aV-42" value="" style="endArrow=none;html=1;rounded=0;exitX=1;exitY=0.25;exitDx=0;exitDy=0;entryX=0;entryY=0.5;entryDx=0;entryDy=0;" edge="1" parent="1" source="_Dmv3MYw5evd5DSL76aV-1" target="_Dmv3MYw5evd5DSL76aV-39">
          <mxGeometry width="50" height="50" relative="1" as="geometry">
            <mxPoint x="600" y="-800" as="sourcePoint" />
            <mxPoint x="650" y="-850" as="targetPoint" />
          </mxGeometry>
        </mxCell>
        <mxCell id="_Dmv3MYw5evd5DSL76aV-44" value="&lt;p style=&quot;margin:0px;margin-top:4px;text-align:center;&quot;&gt;&lt;b&gt;BlackJackTKW:Wyplac&lt;/b&gt;&lt;/p&gt;&lt;hr size=&quot;1&quot; style=&quot;border-style:solid;&quot;&gt;&lt;p style=&quot;margin:0px;margin-left:4px;&quot;&gt;nrTransakcji = F/221&lt;/p&gt;&lt;p style=&quot;margin:0px;margin-left:4px;&quot;&gt;dataTransakcji = 09.04.2025, 11:45&lt;/p&gt;&lt;p style=&quot;margin:0px;margin-left:4px;&quot;&gt;kwota = 100&lt;/p&gt;&lt;p style=&quot;margin:0px;margin-left:4px;&quot;&gt;&lt;br&gt;&lt;/p&gt;&lt;p style=&quot;margin:0px;margin-left:4px;&quot;&gt;&lt;br&gt;&lt;/p&gt;" style="verticalAlign=top;align=left;overflow=fill;html=1;whiteSpace=wrap;" vertex="1" parent="1">
          <mxGeometry x="-660" y="-1000" width="220" height="80" as="geometry" />
        </mxCell>
        <mxCell id="_Dmv3MYw5evd5DSL76aV-46" value="&lt;p style=&quot;margin:0px;margin-top:4px;text-align:center;&quot;&gt;&lt;b&gt;RealArseTKW:Wyplac&lt;/b&gt;&lt;/p&gt;&lt;hr size=&quot;1&quot; style=&quot;border-style:solid;&quot;&gt;&lt;p style=&quot;margin:0px;margin-left:4px;&quot;&gt;nrTransakcji = F/937&lt;/p&gt;&lt;p style=&quot;margin:0px;margin-left:4px;&quot;&gt;kwota = 236&lt;/p&gt;&lt;p style=&quot;margin:0px;margin-left:4px;&quot;&gt;dataTransakcji = 09.04.2025, 8:26&lt;/p&gt;&lt;p style=&quot;margin:0px;margin-left:4px;&quot;&gt;&lt;br&gt;&lt;/p&gt;&lt;p style=&quot;margin:0px;margin-left:4px;&quot;&gt;&lt;br&gt;&lt;/p&gt;" style="verticalAlign=top;align=left;overflow=fill;html=1;whiteSpace=wrap;" vertex="1" parent="1">
          <mxGeometry x="40" y="-1020" width="220" height="80" as="geometry" />
        </mxCell>
        <mxCell id="_Dmv3MYw5evd5DSL76aV-47" value="" style="endArrow=none;html=1;rounded=0;exitX=0.5;exitY=0;exitDx=0;exitDy=0;entryX=0.5;entryY=1;entryDx=0;entryDy=0;" edge="1" parent="1" source="_Dmv3MYw5evd5DSL76aV-1" target="_Dmv3MYw5evd5DSL76aV-52">
          <mxGeometry width="50" height="50" relative="1" as="geometry">
            <mxPoint x="425" y="-590" as="sourcePoint" />
            <mxPoint x="450" y="-920" as="targetPoint" />
          </mxGeometry>
        </mxCell>
        <mxCell id="_Dmv3MYw5evd5DSL76aV-48" value="&lt;p style=&quot;margin:0px;margin-top:4px;text-align:center;&quot;&gt;&lt;b&gt;BlackJackTKR:Rozlicz&lt;/b&gt;&lt;/p&gt;&lt;hr size=&quot;1&quot; style=&quot;border-style:solid;&quot;&gt;&lt;p style=&quot;margin:0px;margin-left:4px;&quot;&gt;czyWygrana = 1&lt;/p&gt;&lt;p style=&quot;margin:0px;margin-left:4px;&quot;&gt;&lt;br&gt;&lt;/p&gt;&lt;p style=&quot;margin:0px;margin-left:4px;&quot;&gt;&lt;br&gt;&lt;/p&gt;" style="verticalAlign=top;align=left;overflow=fill;html=1;whiteSpace=wrap;" vertex="1" parent="1">
          <mxGeometry x="-365" y="-985" width="220" height="50" as="geometry" />
        </mxCell>
        <mxCell id="_Dmv3MYw5evd5DSL76aV-50" value="" style="endArrow=none;html=1;rounded=0;entryX=0;entryY=0.5;entryDx=0;entryDy=0;exitX=1;exitY=0.5;exitDx=0;exitDy=0;" edge="1" parent="1" source="_Dmv3MYw5evd5DSL76aV-44" target="_Dmv3MYw5evd5DSL76aV-48">
          <mxGeometry width="50" height="50" relative="1" as="geometry">
            <mxPoint x="-245" y="-930" as="sourcePoint" />
            <mxPoint x="-245" y="-830" as="targetPoint" />
            <Array as="points" />
          </mxGeometry>
        </mxCell>
        <mxCell id="_Dmv3MYw5evd5DSL76aV-51" value="" style="endArrow=none;html=1;rounded=0;entryX=0.75;entryY=1;entryDx=0;entryDy=0;exitX=0.5;exitY=0;exitDx=0;exitDy=0;" edge="1" parent="1" source="_Dmv3MYw5evd5DSL76aV-14" target="_Dmv3MYw5evd5DSL76aV-44">
          <mxGeometry width="50" height="50" relative="1" as="geometry">
            <mxPoint x="-450" y="-780" as="sourcePoint" />
            <mxPoint x="-400" y="-830" as="targetPoint" />
          </mxGeometry>
        </mxCell>
        <mxCell id="_Dmv3MYw5evd5DSL76aV-52" value="&lt;p style=&quot;margin:0px;margin-top:4px;text-align:center;&quot;&gt;&lt;b&gt;RealArseTKR:Rozlicz&lt;/b&gt;&lt;/p&gt;&lt;hr size=&quot;1&quot; style=&quot;border-style:solid;&quot;&gt;&lt;p style=&quot;margin:0px;margin-left:4px;&quot;&gt;czyWygrana = 1&lt;/p&gt;&lt;p style=&quot;margin:0px;margin-left:4px;&quot;&gt;&lt;br&gt;&lt;/p&gt;&lt;p style=&quot;margin:0px;margin-left:4px;&quot;&gt;&lt;br&gt;&lt;/p&gt;" style="verticalAlign=top;align=left;overflow=fill;html=1;whiteSpace=wrap;" vertex="1" parent="1">
          <mxGeometry x="305" y="-1005" width="220" height="50" as="geometry" />
        </mxCell>
        <mxCell id="_Dmv3MYw5evd5DSL76aV-53" value="" style="endArrow=none;html=1;rounded=0;exitX=0.5;exitY=0;exitDx=0;exitDy=0;entryX=0.5;entryY=1;entryDx=0;entryDy=0;" edge="1" parent="1" source="_Dmv3MYw5evd5DSL76aV-37" target="_Dmv3MYw5evd5DSL76aV-46">
          <mxGeometry width="50" height="50" relative="1" as="geometry">
            <mxPoint x="425" y="-590" as="sourcePoint" />
            <mxPoint x="425" y="-700" as="targetPoint" />
          </mxGeometry>
        </mxCell>
        <mxCell id="_Dmv3MYw5evd5DSL76aV-54" value="" style="endArrow=none;html=1;rounded=0;exitX=1;exitY=0.5;exitDx=0;exitDy=0;entryX=0;entryY=0.5;entryDx=0;entryDy=0;" edge="1" parent="1" source="_Dmv3MYw5evd5DSL76aV-46" target="_Dmv3MYw5evd5DSL76aV-52">
          <mxGeometry width="50" height="50" relative="1" as="geometry">
            <mxPoint x="185" y="-645" as="sourcePoint" />
            <mxPoint x="160" y="-935" as="targetPoint" />
          </mxGeometry>
        </mxCell>
        <mxCell id="_Dmv3MYw5evd5DSL76aV-55" value="&lt;p style=&quot;margin:0px;margin-top:4px;text-align:center;&quot;&gt;&lt;b&gt;RealArsenalLM:ZakładBukmacherski&lt;/b&gt;&lt;/p&gt;&lt;hr size=&quot;1&quot; style=&quot;border-style:solid;&quot;&gt;&lt;p style=&quot;margin:0px;margin-left:4px;&quot;&gt;nazwa = Liga Mistrzow Real Madryt vs Arsenal&lt;/p&gt;&lt;p style=&quot;margin:0px;margin-left:4px;&quot;&gt;rodzaj = piłka nożna&lt;/p&gt;&lt;p style=&quot;margin:0px;margin-left:4px;&quot;&gt;dataKoncaObstawiania = 08.04.2025, 20:00&lt;/p&gt;&lt;p style=&quot;margin:0px;margin-left:4px;&quot;&gt;idZakladu= 022&lt;/p&gt;&lt;p style=&quot;margin:0px;margin-left:4px;&quot;&gt;postawionePieniadze = &amp;lt;TadeuszKowalski, 100.0&amp;gt;&lt;/p&gt;&lt;p style=&quot;margin:0px;margin-left:4px;&quot;&gt;&lt;br&gt;&lt;/p&gt;" style="verticalAlign=top;align=left;overflow=fill;html=1;whiteSpace=wrap;" vertex="1" parent="1">
          <mxGeometry x="232.5" y="-390" width="290" height="120" as="geometry" />
        </mxCell>
        <mxCell id="_Dmv3MYw5evd5DSL76aV-56" value="&lt;p style=&quot;margin:0px;margin-top:4px;text-align:center;&quot;&gt;&lt;b&gt;RealMadryt:Kurs&lt;/b&gt;&lt;/p&gt;&lt;hr size=&quot;1&quot; style=&quot;border-style:solid;&quot;&gt;&lt;p style=&quot;margin:0px;margin-left:4px;&quot;&gt;nazwaZwyciezcy: Real Madryt&lt;/p&gt;&lt;p style=&quot;margin:0px;margin-left:4px;&quot;&gt;akrualnyKurs: 1,12&lt;/p&gt;" style="verticalAlign=top;align=left;overflow=fill;html=1;whiteSpace=wrap;" vertex="1" parent="1">
          <mxGeometry x="577.5" y="-310" width="200" height="90" as="geometry" />
        </mxCell>
        <mxCell id="_Dmv3MYw5evd5DSL76aV-57" value="&lt;p style=&quot;margin:0px;margin-top:4px;text-align:center;&quot;&gt;&lt;b&gt;TadeuszKowalski:Klient&lt;/b&gt;&lt;/p&gt;&lt;hr size=&quot;1&quot; style=&quot;border-style:solid;&quot;&gt;&lt;p style=&quot;margin:0px;margin-left:4px;&quot;&gt;dataUr = 04.12.1999&lt;/p&gt;&lt;p style=&quot;margin:0px;margin-left:4px;&quot;&gt;pesel = 99182005241&lt;/p&gt;&lt;p style=&quot;margin:0px;margin-left:4px;&quot;&gt;imie = Tadeusz&lt;/p&gt;&lt;p style=&quot;margin:0px;margin-left:4px;&quot;&gt;nazwisko = Kowalski&lt;/p&gt;" style="verticalAlign=top;align=left;overflow=fill;html=1;whiteSpace=wrap;" vertex="1" parent="1">
          <mxGeometry x="297.5" y="-230" width="160" height="100" as="geometry" />
        </mxCell>
        <mxCell id="_Dmv3MYw5evd5DSL76aV-58" value="&lt;p style=&quot;margin:0px;margin-top:4px;text-align:center;&quot;&gt;&lt;b&gt;TKKarta:KartaKredytowa&lt;/b&gt;&lt;/p&gt;&lt;hr size=&quot;1&quot; style=&quot;border-style:solid;&quot;&gt;&lt;p style=&quot;margin:0px;margin-left:4px;&quot;&gt;typKarty = Visa&lt;/p&gt;&lt;p style=&quot;margin:0px;margin-left:4px;&quot;&gt;nrKarty = 4520-1070-5096-1884&lt;/p&gt;&lt;p style=&quot;margin:0px;margin-left:4px;&quot;&gt;dataWaznosci = 05.26&lt;/p&gt;&lt;p style=&quot;margin:0px;margin-left:4px;&quot;&gt;limit = 5000&lt;/p&gt;&lt;p style=&quot;margin:0px;margin-left:4px;&quot;&gt;&lt;br&gt;&lt;/p&gt;" style="verticalAlign=top;align=left;overflow=fill;html=1;whiteSpace=wrap;" vertex="1" parent="1">
          <mxGeometry x="17.5" y="-230" width="190" height="100" as="geometry" />
        </mxCell>
        <mxCell id="_Dmv3MYw5evd5DSL76aV-59" value="" style="endArrow=none;html=1;rounded=0;exitX=1;exitY=0.5;exitDx=0;exitDy=0;entryX=0;entryY=0.5;entryDx=0;entryDy=0;" edge="1" parent="1" source="_Dmv3MYw5evd5DSL76aV-58" target="_Dmv3MYw5evd5DSL76aV-57">
          <mxGeometry width="50" height="50" relative="1" as="geometry">
            <mxPoint x="332.5" y="50" as="sourcePoint" />
            <mxPoint x="382.5" as="targetPoint" />
            <Array as="points" />
          </mxGeometry>
        </mxCell>
        <mxCell id="_Dmv3MYw5evd5DSL76aV-60" value="&lt;p style=&quot;margin:0px;margin-top:4px;text-align:center;&quot;&gt;&lt;b&gt;Arsenal:Kurs&lt;/b&gt;&lt;/p&gt;&lt;hr size=&quot;1&quot; style=&quot;border-style:solid;&quot;&gt;&lt;p style=&quot;margin:0px;margin-left:4px;&quot;&gt;nazwaZwyciezcy: Arsenal&lt;/p&gt;&lt;p style=&quot;margin:0px;margin-left:4px;&quot;&gt;akrualnyKurs: 2,36&lt;/p&gt;" style="verticalAlign=top;align=left;overflow=fill;html=1;whiteSpace=wrap;" vertex="1" parent="1">
          <mxGeometry x="577.5" y="-430" width="200" height="90" as="geometry" />
        </mxCell>
        <mxCell id="_Dmv3MYw5evd5DSL76aV-61" value="" style="endArrow=none;html=1;rounded=0;exitX=0.5;exitY=0;exitDx=0;exitDy=0;entryX=0.5;entryY=1;entryDx=0;entryDy=0;" edge="1" parent="1" source="_Dmv3MYw5evd5DSL76aV-57" target="_Dmv3MYw5evd5DSL76aV-55">
          <mxGeometry width="50" height="50" relative="1" as="geometry">
            <mxPoint x="482.5" y="-130" as="sourcePoint" />
            <mxPoint x="532.5" y="-180" as="targetPoint" />
          </mxGeometry>
        </mxCell>
        <mxCell id="_Dmv3MYw5evd5DSL76aV-62" value="" style="endArrow=none;html=1;rounded=0;exitX=1;exitY=0.75;exitDx=0;exitDy=0;entryX=0;entryY=0.5;entryDx=0;entryDy=0;" edge="1" parent="1" source="_Dmv3MYw5evd5DSL76aV-55" target="_Dmv3MYw5evd5DSL76aV-56">
          <mxGeometry width="50" height="50" relative="1" as="geometry">
            <mxPoint x="542.5" y="-140" as="sourcePoint" />
            <mxPoint x="592.5" y="-190" as="targetPoint" />
          </mxGeometry>
        </mxCell>
        <mxCell id="_Dmv3MYw5evd5DSL76aV-63" value="" style="endArrow=none;html=1;rounded=0;exitX=1;exitY=0.25;exitDx=0;exitDy=0;entryX=0;entryY=0.5;entryDx=0;entryDy=0;" edge="1" parent="1" source="_Dmv3MYw5evd5DSL76aV-55" target="_Dmv3MYw5evd5DSL76aV-60">
          <mxGeometry width="50" height="50" relative="1" as="geometry">
            <mxPoint x="562.5" y="-290" as="sourcePoint" />
            <mxPoint x="612.5" y="-340" as="targetPoint" />
          </mxGeometry>
        </mxCell>
        <mxCell id="_Dmv3MYw5evd5DSL76aV-65" value="" style="endArrow=none;html=1;rounded=0;exitX=0.5;exitY=0;exitDx=0;exitDy=0;entryX=0.5;entryY=1;entryDx=0;entryDy=0;" edge="1" parent="1" source="_Dmv3MYw5evd5DSL76aV-55" target="_Dmv3MYw5evd5DSL76aV-66">
          <mxGeometry width="50" height="50" relative="1" as="geometry">
            <mxPoint x="387.5" y="-110" as="sourcePoint" />
            <mxPoint x="412.5" y="-440" as="targetPoint" />
          </mxGeometry>
        </mxCell>
        <mxCell id="_Dmv3MYw5evd5DSL76aV-66" value="&lt;p style=&quot;margin:0px;margin-top:4px;text-align:center;&quot;&gt;&lt;b&gt;RealArseTKR:Rozlicz&lt;/b&gt;&lt;/p&gt;&lt;hr size=&quot;1&quot; style=&quot;border-style:solid;&quot;&gt;&lt;p style=&quot;margin:0px;margin-left:4px;&quot;&gt;czyWygrana = 0&lt;/p&gt;&lt;p style=&quot;margin:0px;margin-left:4px;&quot;&gt;&lt;br&gt;&lt;/p&gt;&lt;p style=&quot;margin:0px;margin-left:4px;&quot;&gt;&lt;br&gt;&lt;/p&gt;" style="verticalAlign=top;align=left;overflow=fill;html=1;whiteSpace=wrap;" vertex="1" parent="1">
          <mxGeometry x="267.5" y="-470" width="220" height="50" as="geometry" />
        </mxCell>
        <mxCell id="_Dmv3MYw5evd5DSL76aV-73" value="&lt;p style=&quot;margin:0px;margin-top:4px;text-align:center;&quot;&gt;&lt;b&gt;TadeuszKowalski:Klient&lt;/b&gt;&lt;/p&gt;&lt;hr size=&quot;1&quot; style=&quot;border-style:solid;&quot;&gt;&lt;p style=&quot;margin:0px;margin-left:4px;&quot;&gt;dataUr = 04.12.1999&lt;/p&gt;&lt;p style=&quot;margin:0px;margin-left:4px;&quot;&gt;pesel = 99182005241&lt;/p&gt;&lt;p style=&quot;margin:0px;margin-left:4px;&quot;&gt;imie = Tadeusz&lt;/p&gt;&lt;p style=&quot;margin:0px;margin-left:4px;&quot;&gt;nazwisko = Kowalski&lt;/p&gt;" style="verticalAlign=top;align=left;overflow=fill;html=1;whiteSpace=wrap;" vertex="1" parent="1">
          <mxGeometry x="215" y="490" width="160" height="100" as="geometry" />
        </mxCell>
        <mxCell id="_Dmv3MYw5evd5DSL76aV-74" value="&lt;p style=&quot;margin:0px;margin-top:4px;text-align:center;&quot;&gt;&lt;b&gt;TKKarta:KartaKredytowa&lt;/b&gt;&lt;/p&gt;&lt;hr size=&quot;1&quot; style=&quot;border-style:solid;&quot;&gt;&lt;p style=&quot;margin:0px;margin-left:4px;&quot;&gt;typKarty = Visa&lt;/p&gt;&lt;p style=&quot;margin:0px;margin-left:4px;&quot;&gt;nrKarty = 4520-1070-5096-1884&lt;/p&gt;&lt;p style=&quot;margin:0px;margin-left:4px;&quot;&gt;dataWaznosci = 05.26&lt;/p&gt;&lt;p style=&quot;margin:0px;margin-left:4px;&quot;&gt;limit = 5000&lt;/p&gt;&lt;p style=&quot;margin:0px;margin-left:4px;&quot;&gt;&lt;br&gt;&lt;/p&gt;" style="verticalAlign=top;align=left;overflow=fill;html=1;whiteSpace=wrap;" vertex="1" parent="1">
          <mxGeometry x="-250" y="490" width="190" height="100" as="geometry" />
        </mxCell>
        <mxCell id="_Dmv3MYw5evd5DSL76aV-75" value="&lt;p style=&quot;margin:0px;margin-top:4px;text-align:center;&quot;&gt;&lt;b&gt;BlackJack:GraLosowa&lt;/b&gt;&lt;/p&gt;&lt;hr size=&quot;1&quot; style=&quot;border-style:solid;&quot;&gt;&lt;p style=&quot;margin:0px;margin-left:4px;&quot;&gt;nazwa = BlackJack&lt;/p&gt;&lt;p style=&quot;margin:0px;margin-left:4px;&quot;&gt;rodzaj = karciana&lt;/p&gt;&lt;p style=&quot;margin:0px;margin-left:4px;&quot;&gt;stawkaWejscia = 20,50&lt;/p&gt;&lt;p style=&quot;margin:0px;margin-left:4px;&quot;&gt;postawionePieniadze = &amp;lt;TadeuszKowalski, 50.0&amp;gt;&lt;/p&gt;&lt;p style=&quot;margin:0px;margin-left:4px;&quot;&gt;idGry = 011&lt;/p&gt;&lt;p style=&quot;margin:0px;margin-left:4px;&quot;&gt;idKrupiera = 02&lt;/p&gt;" style="verticalAlign=top;align=left;overflow=fill;html=1;whiteSpace=wrap;" vertex="1" parent="1">
          <mxGeometry x="-40" y="305" width="290" height="120" as="geometry" />
        </mxCell>
        <mxCell id="_Dmv3MYw5evd5DSL76aV-76" value="" style="endArrow=none;html=1;rounded=0;exitX=1;exitY=0.5;exitDx=0;exitDy=0;entryX=0;entryY=0.5;entryDx=0;entryDy=0;" edge="1" parent="1" source="_Dmv3MYw5evd5DSL76aV-74" target="_Dmv3MYw5evd5DSL76aV-73">
          <mxGeometry width="50" height="50" relative="1" as="geometry">
            <mxPoint x="60" y="740" as="sourcePoint" />
            <mxPoint x="110" y="690" as="targetPoint" />
            <Array as="points" />
          </mxGeometry>
        </mxCell>
        <mxCell id="_Dmv3MYw5evd5DSL76aV-77" value="" style="endArrow=none;html=1;rounded=0;exitX=0.5;exitY=0;exitDx=0;exitDy=0;entryX=0.5;entryY=1;entryDx=0;entryDy=0;" edge="1" parent="1" source="_Dmv3MYw5evd5DSL76aV-73" target="_Dmv3MYw5evd5DSL76aV-75">
          <mxGeometry width="50" height="50" relative="1" as="geometry">
            <mxPoint x="70" y="610" as="sourcePoint" />
            <mxPoint x="120" y="560" as="targetPoint" />
          </mxGeometry>
        </mxCell>
        <mxCell id="_Dmv3MYw5evd5DSL76aV-78" value="" style="endArrow=none;html=1;rounded=0;entryX=0.5;entryY=0;entryDx=0;entryDy=0;exitX=0.5;exitY=1;exitDx=0;exitDy=0;" edge="1" parent="1" source="_Dmv3MYw5evd5DSL76aV-80" target="_Dmv3MYw5evd5DSL76aV-75">
          <mxGeometry width="50" height="50" relative="1" as="geometry">
            <mxPoint x="110" y="255" as="sourcePoint" />
            <mxPoint x="100" y="210" as="targetPoint" />
            <Array as="points" />
          </mxGeometry>
        </mxCell>
        <mxCell id="_Dmv3MYw5evd5DSL76aV-79" value="&lt;p style=&quot;margin:0px;margin-top:4px;text-align:center;&quot;&gt;&lt;b&gt;TKW:Wyplac&lt;/b&gt;&lt;/p&gt;&lt;hr size=&quot;1&quot; style=&quot;border-style:solid;&quot;&gt;&lt;p style=&quot;margin:0px;margin-left:4px;&quot;&gt;nrTransakcji = F/221&lt;/p&gt;&lt;p style=&quot;margin:0px;margin-left:4px;&quot;&gt;dataTransakcji = 09.04.2025, 11:45&lt;/p&gt;&lt;p style=&quot;margin:0px;margin-left:4px;&quot;&gt;kwota = 100&lt;/p&gt;&lt;p style=&quot;margin:0px;margin-left:4px;&quot;&gt;&lt;br&gt;&lt;/p&gt;&lt;p style=&quot;margin:0px;margin-left:4px;&quot;&gt;&lt;br&gt;&lt;/p&gt;" style="verticalAlign=top;align=left;overflow=fill;html=1;whiteSpace=wrap;" vertex="1" parent="1">
          <mxGeometry x="165" y="90" width="220" height="80" as="geometry" />
        </mxCell>
        <mxCell id="_Dmv3MYw5evd5DSL76aV-80" value="&lt;p style=&quot;margin:0px;margin-top:4px;text-align:center;&quot;&gt;&lt;b&gt;BlackJackTKR:Rozlicz&lt;/b&gt;&lt;/p&gt;&lt;hr size=&quot;1&quot; style=&quot;border-style:solid;&quot;&gt;&lt;p style=&quot;margin:0px;margin-left:4px;&quot;&gt;czyWygrana = 1&lt;/p&gt;&lt;p style=&quot;margin:0px;margin-left:4px;&quot;&gt;&lt;br&gt;&lt;/p&gt;&lt;p style=&quot;margin:0px;margin-left:4px;&quot;&gt;&lt;br&gt;&lt;/p&gt;" style="verticalAlign=top;align=left;overflow=fill;html=1;whiteSpace=wrap;" vertex="1" parent="1">
          <mxGeometry x="-5" y="225" width="220" height="50" as="geometry" />
        </mxCell>
        <mxCell id="_Dmv3MYw5evd5DSL76aV-82" value="" style="endArrow=none;html=1;rounded=0;exitX=0.5;exitY=0;exitDx=0;exitDy=0;entryX=0;entryY=0.5;entryDx=0;entryDy=0;" edge="1" parent="1" source="_Dmv3MYw5evd5DSL76aV-74" target="_Dmv3MYw5evd5DSL76aV-79">
          <mxGeometry width="50" height="50" relative="1" as="geometry">
            <mxPoint x="-90" y="430" as="sourcePoint" />
            <mxPoint x="-155" y="100" as="targetPoint" />
            <Array as="points">
              <mxPoint x="-155" y="130" />
            </Array>
          </mxGeometry>
        </mxCell>
        <mxCell id="_Dmv3MYw5evd5DSL76aV-83" value="&lt;p style=&quot;margin:0px;margin-top:4px;text-align:center;&quot;&gt;&lt;b&gt;RealArsenalLM:ZakładBukmacherski&lt;/b&gt;&lt;/p&gt;&lt;hr size=&quot;1&quot; style=&quot;border-style:solid;&quot;&gt;&lt;p style=&quot;margin:0px;margin-left:4px;&quot;&gt;nazwa = Liga Mistrzow Real Madryt vs Arsenal&lt;/p&gt;&lt;p style=&quot;margin:0px;margin-left:4px;&quot;&gt;rodzaj = piłka nożna&lt;/p&gt;&lt;p style=&quot;margin:0px;margin-left:4px;&quot;&gt;dataKoncaObstawiania = 08.04.2025, 20:00&lt;/p&gt;&lt;p style=&quot;margin:0px;margin-left:4px;&quot;&gt;idZakladu= 022&lt;/p&gt;&lt;p style=&quot;margin:0px;margin-left:4px;&quot;&gt;postawionePieniadze = &amp;lt;TadeuszKowalski, 100.0&amp;gt;&lt;/p&gt;&lt;p style=&quot;margin:0px;margin-left:4px;&quot;&gt;&lt;br&gt;&lt;/p&gt;" style="verticalAlign=top;align=left;overflow=fill;html=1;whiteSpace=wrap;" vertex="1" parent="1">
          <mxGeometry x="290" y="310" width="290" height="120" as="geometry" />
        </mxCell>
        <mxCell id="_Dmv3MYw5evd5DSL76aV-84" value="&lt;p style=&quot;margin:0px;margin-top:4px;text-align:center;&quot;&gt;&lt;b&gt;RealMadryt:Kurs&lt;/b&gt;&lt;/p&gt;&lt;hr size=&quot;1&quot; style=&quot;border-style:solid;&quot;&gt;&lt;p style=&quot;margin:0px;margin-left:4px;&quot;&gt;nazwaZwyciezcy: Real Madryt&lt;/p&gt;&lt;p style=&quot;margin:0px;margin-left:4px;&quot;&gt;akrualnyKurs: 1,12&lt;/p&gt;" style="verticalAlign=top;align=left;overflow=fill;html=1;whiteSpace=wrap;" vertex="1" parent="1">
          <mxGeometry x="635" y="390" width="200" height="90" as="geometry" />
        </mxCell>
        <mxCell id="_Dmv3MYw5evd5DSL76aV-85" value="&lt;p style=&quot;margin:0px;margin-top:4px;text-align:center;&quot;&gt;&lt;b&gt;Arsenal:Kurs&lt;/b&gt;&lt;/p&gt;&lt;hr size=&quot;1&quot; style=&quot;border-style:solid;&quot;&gt;&lt;p style=&quot;margin:0px;margin-left:4px;&quot;&gt;nazwaZwyciezcy: Arsenal&lt;/p&gt;&lt;p style=&quot;margin:0px;margin-left:4px;&quot;&gt;akrualnyKurs: 2,36&lt;/p&gt;" style="verticalAlign=top;align=left;overflow=fill;html=1;whiteSpace=wrap;" vertex="1" parent="1">
          <mxGeometry x="635" y="270" width="200" height="90" as="geometry" />
        </mxCell>
        <mxCell id="_Dmv3MYw5evd5DSL76aV-86" value="" style="endArrow=none;html=1;rounded=0;exitX=0.5;exitY=0;exitDx=0;exitDy=0;entryX=0.5;entryY=1;entryDx=0;entryDy=0;" edge="1" parent="1" target="_Dmv3MYw5evd5DSL76aV-83" source="_Dmv3MYw5evd5DSL76aV-73">
          <mxGeometry width="50" height="50" relative="1" as="geometry">
            <mxPoint x="435.5" y="470" as="sourcePoint" />
            <mxPoint x="590" y="520" as="targetPoint" />
          </mxGeometry>
        </mxCell>
        <mxCell id="_Dmv3MYw5evd5DSL76aV-87" value="" style="endArrow=none;html=1;rounded=0;exitX=1;exitY=0.75;exitDx=0;exitDy=0;entryX=0;entryY=0.5;entryDx=0;entryDy=0;" edge="1" parent="1" source="_Dmv3MYw5evd5DSL76aV-83" target="_Dmv3MYw5evd5DSL76aV-84">
          <mxGeometry width="50" height="50" relative="1" as="geometry">
            <mxPoint x="600" y="560" as="sourcePoint" />
            <mxPoint x="650" y="510" as="targetPoint" />
          </mxGeometry>
        </mxCell>
        <mxCell id="_Dmv3MYw5evd5DSL76aV-88" value="" style="endArrow=none;html=1;rounded=0;exitX=1;exitY=0.25;exitDx=0;exitDy=0;entryX=0;entryY=0.5;entryDx=0;entryDy=0;" edge="1" parent="1" source="_Dmv3MYw5evd5DSL76aV-83" target="_Dmv3MYw5evd5DSL76aV-85">
          <mxGeometry width="50" height="50" relative="1" as="geometry">
            <mxPoint x="620" y="410" as="sourcePoint" />
            <mxPoint x="670" y="360" as="targetPoint" />
          </mxGeometry>
        </mxCell>
        <mxCell id="_Dmv3MYw5evd5DSL76aV-89" value="" style="endArrow=none;html=1;rounded=0;exitX=0.5;exitY=0;exitDx=0;exitDy=0;entryX=0.5;entryY=1;entryDx=0;entryDy=0;" edge="1" parent="1" source="_Dmv3MYw5evd5DSL76aV-83" target="_Dmv3MYw5evd5DSL76aV-90">
          <mxGeometry width="50" height="50" relative="1" as="geometry">
            <mxPoint x="445" y="590" as="sourcePoint" />
            <mxPoint x="470" y="260" as="targetPoint" />
          </mxGeometry>
        </mxCell>
        <mxCell id="_Dmv3MYw5evd5DSL76aV-90" value="&lt;p style=&quot;margin:0px;margin-top:4px;text-align:center;&quot;&gt;&lt;b&gt;RealArseTKR:Rozlicz&lt;/b&gt;&lt;/p&gt;&lt;hr size=&quot;1&quot; style=&quot;border-style:solid;&quot;&gt;&lt;p style=&quot;margin:0px;margin-left:4px;&quot;&gt;czyWygrana = 0&lt;/p&gt;&lt;p style=&quot;margin:0px;margin-left:4px;&quot;&gt;&lt;br&gt;&lt;/p&gt;&lt;p style=&quot;margin:0px;margin-left:4px;&quot;&gt;&lt;br&gt;&lt;/p&gt;" style="verticalAlign=top;align=left;overflow=fill;html=1;whiteSpace=wrap;" vertex="1" parent="1">
          <mxGeometry x="325" y="230" width="220" height="50" as="geometry" />
        </mxCell>
        <mxCell id="_Dmv3MYw5evd5DSL76aV-91" value="" style="endArrow=none;html=1;rounded=0;exitX=0.5;exitY=0;exitDx=0;exitDy=0;entryX=0.25;entryY=1;entryDx=0;entryDy=0;" edge="1" parent="1" source="_Dmv3MYw5evd5DSL76aV-80" target="_Dmv3MYw5evd5DSL76aV-79">
          <mxGeometry width="50" height="50" relative="1" as="geometry">
            <mxPoint x="-50" y="600" as="sourcePoint" />
            <mxPoint x="220" y="590" as="targetPoint" />
            <Array as="points" />
          </mxGeometry>
        </mxCell>
        <mxCell id="_Dmv3MYw5evd5DSL76aV-92" value="" style="endArrow=none;html=1;rounded=0;exitX=0.5;exitY=0;exitDx=0;exitDy=0;entryX=0.75;entryY=1;entryDx=0;entryDy=0;" edge="1" parent="1" source="_Dmv3MYw5evd5DSL76aV-90" target="_Dmv3MYw5evd5DSL76aV-79">
          <mxGeometry width="50" height="50" relative="1" as="geometry">
            <mxPoint x="115" y="235" as="sourcePoint" />
            <mxPoint x="215" y="180" as="targetPoint" />
            <Array as="points" />
          </mxGeometry>
        </mxCell>
      </root>
    </mxGraphModel>
  </diagram>
</mxfile>
